<svg version="1.1" id="Layer_1" xmlns="http://www.w3.org/2000/svg" xmlns:xlink="http://www.w3.org/1999/xlink" x="0px" y="0px" viewBox="0 0 300 287.9" style="enable-background:new 0 0 300 287.9;" xml:space="preserve"><defs><style> .svg-style-0 {  fill: rgb(0, 0, 0); }</style></defs><path id="path-01" d="M289.3,272H10.7c-4.1,0-7.8-1.5-10.7-4.1v9.3c0,5.9,4.8,10.7,10.7,10.7h278.6c5.9,0,10.7-4.8,10.7-10.7v-9.3
	C297.1,270.5,293.3,272,289.3,272z M10.7,266.8h278.6c3.5,0,6.6-1.6,8.6-4.4s2.6-6.3,1.5-9.6l-27-82.8h-245l-27,82.8
	c-1.1,3.3-0.5,6.8,1.5,9.6C4.1,265.1,7.2,266.8,10.7,266.8z M206.2,257.8c-0.5,0.6-1.2,0.9-2,0.9H95.7c-0.8,0-1.5-0.3-2-0.9
	s-0.7-1.3-0.6-2.1l2.6-20.7c0.2-1.3,1.3-2.3,2.6-2.3h103.3c1.3,0,2.4,1,2.6,2.3l2.6,20.7C207,256.5,206.7,257.2,206.2,257.8z
	 M18.6,223.2l4.5-13.7l5-15.2l4.7-14.5c0.4-1.1,1.4-1.8,2.5-1.8h229.4c1.1,0,2.1,0.7,2.5,1.8l14.1,43.4c0.3,0.8,0.1,1.7-0.4,2.4
	s-1.3,1.1-2.1,1.1H21.2c-0.8,0-1.6-0.4-2.1-1.1C18.5,224.9,18.4,224,18.6,223.2z M252.2,221.4h23l-3-9.2h-22.3L252.2,221.4z
	 M271.8,13.3C271.8,6,265.9,0,258.5,0h-217c-7.3,0-13.3,5.9-13.3,13.3v151.4h243.5L271.8,13.3L271.8,13.3z M41.6,151.4v-138h98.9
	l-78.8,138H41.6z M110.1,151.4l78.8-138h22l-78.8,138H110.1z M258.4,151.4h-97.5l78.8-138h18.7V151.4z M233.9,206.9h36.6l-3-9.2
	h-35.9L233.9,206.9z M265.8,192.5l-3-9.2h-20.2l2.3,9.2H265.8z M222,212.2l1.8,9.2h23l-2.3-9.2H222z M239.5,192.5l-2.3-9.2h-20.3
	l1.6,9.2H239.5z M226.2,197.7h-21.3l1.6,9.2h22L226.2,197.7z M194.2,212.2l1.1,9.2h23.1l-1.7-9.2H194.2z M213.2,192.5l-1.7-9.2
	h-20.3l1,9.2H213.2z M199.5,197.7h-21.4l0.9,9.2h22.1L199.5,197.7z M110.9,212.2l-0.9,9.2h80l-1.1-9.2H110.9z M186.9,192.5l-1-9.2
	h-20.4l0.3,9.2H186.9z M172.8,197.7h-21.5l0.3,9.2h22.1L172.8,197.7z M160.2,183.3h-20.4l-0.3,9.2h21L160.2,183.3z M146.1,197.7
	h-21.5l-0.4,9.2h22.1L146.1,197.7z M134.5,183.3h-20.4l-1,9.2h21.1L134.5,183.3z M119.4,197.7H97.9l-1.1,9.2h22.1L119.4,197.7z
	 M108.8,183.3H88.5l-1.7,9.2h21L108.8,183.3z M81.5,221.4h23.2l0.9-9.2H83.2L81.5,221.4z M92.6,197.7H71.2l-1.7,9.2h22L92.6,197.7z
	 M83.1,183.3H62.8l-2.3,9.2h21L83.1,183.3z M53.1,221.4h23.1l1.6-9.2H55.5L53.1,221.4z M65.9,197.7H32.5l-3,9.2h34.6L65.9,197.7z
	 M57.4,183.3H37.2l-3,9.2h20.9L57.4,183.3z M50,212.2H27.8l-3,9.2h22.9L50,212.2z" class="svg-style-0"/></svg>